# Blender 4.5.4 LTS
# www.blender.org
mtllib head_yaw.mtl
o head_yaw_link
v 0.018682 0.003463 0.016261
v 0.018872 0.002206 0.016406
v 0.018872 0.002206 0.000000
v -0.009955 -0.016183 0.011642
v -0.011346 -0.015240 0.012151
v -0.011346 -0.015240 -0.000000
v -0.018919 -0.001750 0.016443
v -0.019000 -0.000000 0.016505
v -0.019000 0.000000 0.000000
v -0.016979 -0.008527 -0.000000
v -0.017847 -0.006519 0.015653
v -0.018488 -0.004382 -0.000000
v -0.018488 -0.004382 0.016116
v -0.018726 -0.003215 0.016295
v -0.013818 -0.013041 0.013250
v -0.014555 -0.012213 0.013629
v -0.014555 -0.012213 -0.000000
v -0.015870 -0.010447 0.014370
v -0.016979 -0.008527 0.015063
v -0.012636 -0.014189 0.012692
v -0.007526 -0.017446 -0.000000
v -0.007526 -0.017446 0.010927
v -0.008503 -0.016991 0.011189
v -0.000896 -0.018979 0.010013
v -0.002860 -0.018783 0.010132
v -0.003299 -0.018711 -0.000000
v -0.003301 -0.018711 0.010176
v -0.005457 -0.018200 0.010484
v 0.001105 -0.018968 0.010020
v 0.001105 -0.018968 -0.000000
v 0.002860 -0.018783 0.010132
v 0.005449 -0.018202 -0.000000
v 0.005449 -0.018202 0.010483
v 0.007004 -0.017662 0.010802
v 0.009500 -0.016454 -0.000000
v 0.008502 -0.016991 0.011189
v 0.013039 -0.013820 -0.000000
v 0.011357 -0.015232 0.012155
v 0.009500 -0.016454 0.011492
v 0.015874 -0.010441 0.014373
v 0.014900 -0.011789 0.013816
v 0.015874 -0.010441 -0.000000
v 0.013818 -0.013041 0.013250
v 0.013039 -0.013820 0.012875
v 0.016973 -0.008539 0.015060
v 0.017854 -0.006498 -0.000000
v 0.017854 -0.006498 0.015658
v 0.018330 -0.005002 0.016000
v 0.018872 -0.002206 -0.000000
v 0.018728 -0.003205 0.016296
v 0.019000 0.000000 0.000000
v 0.019000 0.000003 0.016505
v 0.018872 -0.002206 0.016406
v 0.015874 0.010441 0.000000
v 0.016976 0.008534 0.015061
v 0.017854 0.006498 0.000000
v 0.017854 0.006498 0.015658
v 0.018329 0.005005 0.015999
v 0.013039 0.013820 0.000000
v 0.013039 0.013820 0.012875
v 0.013846 0.013011 0.013264
v 0.014901 0.011788 0.013816
v 0.015874 0.010441 0.014373
v 0.006999 0.017664 0.010801
v 0.009500 0.016454 0.000000
v 0.005449 0.018202 0.010483
v 0.005449 0.018202 0.000000
v 0.002860 0.018783 0.010132
v 0.008484 0.017001 0.011183
v 0.009500 0.016454 0.011492
v 0.011345 0.015241 0.012151
v 0.001105 0.018968 0.010020
v 0.001105 0.018968 0.000000
v -0.000893 0.018979 0.010013
v -0.003299 0.018711 0.000000
v -0.002863 0.018783 0.010132
v -0.007526 0.017446 0.000000
v -0.005463 0.018198 0.010485
v -0.003299 0.018711 0.010176
v -0.011346 0.015240 0.012151
v -0.009959 0.016181 0.011643
v -0.011346 0.015240 0.000000
v -0.008484 0.017001 0.011183
v -0.007526 0.017446 0.010927
v -0.012631 0.014193 0.012690
v -0.014555 0.012213 0.000000
v -0.013845 0.013012 0.013263
v -0.016979 0.008527 0.000000
v -0.015873 0.010442 0.014372
v -0.014555 0.012213 0.013629
v -0.018488 0.004382 0.000000
v -0.017849 0.006512 0.015654
v -0.016979 0.008527 0.015063
v -0.018919 0.001751 0.016443
v -0.018682 0.003463 0.016261
v -0.018488 0.004382 0.016116
v 0.019000 0.000000 0.000000
v 0.000000 0.000000 0.000000
v 0.008484 -0.030500 0.011183
v -0.002860 0.030500 0.010132
v -0.018682 -0.030500 0.016261
v -0.022909 -0.030500 0.020115
v -0.018682 0.030500 0.016261
v -0.022909 0.030500 0.020115
v -0.019000 -0.000000 0.016505
v -0.013818 0.030500 0.013250
v -0.008484 0.030500 0.011183
v 0.002860 0.030500 0.010132
v 0.008484 0.030500 0.011183
v 0.013818 0.030500 0.013250
v 0.018682 0.030500 0.016261
v 0.022909 0.030500 0.020115
v 0.018682 -0.030500 0.016261
v 0.022909 -0.030500 0.020115
v 0.013818 -0.030500 0.013250
v 0.002860 -0.030500 0.010132
v -0.002860 -0.030500 0.010132
v -0.008484 -0.030500 0.011183
v -0.013818 -0.030500 0.013250
v 0.026357 0.030500 0.024681
v 0.026357 -0.030500 0.024681
v 0.028907 0.030500 0.029802
v 0.028907 -0.030500 0.029802
v 0.030472 0.030500 0.035304
v 0.030472 -0.030500 0.035304
v 0.031000 0.030500 0.041000
v 0.031000 -0.030500 0.041000
v 0.030472 0.030500 0.046696
v 0.030472 -0.030500 0.046696
v 0.028907 0.030500 0.052198
v 0.028907 -0.030500 0.052198
v 0.026357 0.030500 0.057319
v 0.026357 -0.030500 0.057319
v 0.022909 0.030500 0.061885
v 0.022909 -0.030500 0.061885
v 0.018682 0.030500 0.065739
v 0.018682 -0.030500 0.065739
v 0.013818 0.030500 0.068750
v 0.013818 -0.030500 0.068750
v 0.008484 0.030500 0.070817
v 0.008484 -0.030500 0.070817
v 0.002860 0.030500 0.071868
v 0.002860 -0.030500 0.071868
v -0.002860 0.030500 0.071868
v -0.002860 -0.030500 0.071868
v -0.008484 0.030500 0.070817
v -0.008484 -0.030500 0.070817
v -0.013818 0.030500 0.068750
v -0.013818 -0.030500 0.068750
v -0.018682 0.030500 0.065739
v -0.018682 -0.030500 0.065739
v -0.022909 0.030500 0.061885
v -0.022909 -0.030500 0.061885
v -0.026357 0.030500 0.057319
v -0.026357 -0.030500 0.057319
v -0.028907 0.030500 0.052198
v -0.028907 -0.030500 0.052198
v -0.030472 0.030500 0.046696
v -0.030472 -0.030500 0.046696
v -0.031000 0.030500 0.041000
v -0.031000 -0.030500 0.041000
v -0.030472 0.030500 0.035304
v -0.030472 -0.030500 0.035304
v -0.028907 0.030500 0.029802
v -0.028907 -0.030500 0.029802
v -0.026357 0.030500 0.024681
v -0.026357 -0.030500 0.024681
v -0.000000 0.030500 0.041000
v 0.010000 -0.030500 0.023679
v 0.013725 -0.030500 0.026453
v 0.016710 -0.030500 0.030010
v 0.018794 -0.030500 0.034160
v 0.019865 -0.030500 0.038678
v 0.020000 -0.030500 0.041000
v 0.019865 -0.030500 0.043322
v 0.018794 -0.030500 0.047840
v 0.016710 -0.030500 0.051990
v 0.013725 -0.030500 0.055547
v -0.007922 -0.030500 0.022636
v -0.003473 -0.030500 0.021304
v 0.001163 -0.030500 0.021034
v 0.005736 -0.030500 0.021840
v -0.019461 -0.030500 0.036388
v -0.017873 -0.030500 0.032024
v -0.015321 -0.030500 0.028144
v -0.011943 -0.030500 0.024958
v 0.010000 -0.030500 0.058321
v 0.005736 -0.030500 0.060160
v 0.001163 -0.030500 0.060966
v -0.003473 -0.030500 0.060696
v -0.007922 -0.030500 0.059364
v -0.011943 -0.030500 0.057042
v -0.015321 -0.030500 0.053856
v -0.017873 -0.030500 0.049976
v -0.019461 -0.030500 0.045612
v -0.020000 -0.030500 0.041000
v 0.019865 -0.034200 0.043322
v 0.020000 -0.034200 0.041000
v 0.019865 -0.034200 0.038678
v 0.018794 -0.034200 0.034160
v 0.016710 -0.034200 0.030010
v 0.013725 -0.034200 0.026453
v 0.010000 -0.034200 0.023679
v 0.005736 -0.034200 0.021840
v 0.001163 -0.034200 0.021034
v -0.003473 -0.034200 0.021304
v -0.007922 -0.034200 0.022636
v -0.011943 -0.034200 0.024958
v -0.015321 -0.034200 0.028144
v -0.017873 -0.034200 0.032024
v -0.019461 -0.034200 0.036388
v -0.020000 -0.034200 0.041000
v -0.019461 -0.034200 0.045612
v -0.017873 -0.034200 0.049976
v -0.015321 -0.034200 0.053856
v -0.011943 -0.034200 0.057042
v -0.007922 -0.034200 0.059364
v -0.003473 -0.034200 0.060696
v 0.001163 -0.034200 0.060966
v 0.005736 -0.034200 0.060160
v 0.010000 -0.034200 0.058321
v 0.013725 -0.034200 0.055547
v 0.016710 -0.034200 0.051990
v 0.018794 -0.034200 0.047840
v -0.000000 -0.034200 0.041000
vn 0.9888 0.1493 -0.0000
vn -0.5611 -0.8277 -0.0000
vn -0.9989 -0.0461 -0.0000
vn -0.9397 -0.3420 -0.0082
vn -0.9578 -0.2873 -0.0000
vn -0.9932 -0.1161 -0.0000
vn -0.9802 -0.1967 -0.0223
vn -0.9915 -0.1299 -0.0090
vn -0.7470 -0.6649 -0.0000
vn -0.8020 -0.5973 -0.0000
vn -0.8355 -0.5495 -0.0089
vn -0.8659 -0.5002 -0.0000
vn -0.9180 -0.3966 -0.0000
vn -0.6862 -0.7274 -0.0000
vn -0.6375 -0.7701 -0.0235
vn -0.6982 -0.7158 -0.0059
vn -0.5000 -0.8660 -0.0000
vn -0.4288 -0.9028 -0.0323
vn -0.4891 -0.8722 -0.0122
vn -0.0991 -0.9951 -0.0028
vn -0.1622 -0.9868 -0.0000
vn -0.2868 -0.9580 -0.0000
vn -0.2340 -0.9719 -0.0237
vn -0.3422 -0.9396 -0.0000
vn 0.0056 -0.9996 -0.0281
vn -0.0581 -0.9983 -0.0000
vn 0.1045 -0.9945 -0.0000
vn 0.1736 -0.9847 -0.0122
vn 0.2192 -0.9757 -0.0000
vn 0.3280 -0.9447 -0.0000
vn 0.3961 -0.9182 -0.0111
vn 0.4100 -0.9121 -0.0072
vn 0.5971 -0.8021 -0.0106
vn 0.5498 -0.8353 -0.0000
vn 0.4740 -0.8805 -0.0000
vn 0.8106 -0.5856 -0.0000
vn 0.7587 -0.6514 -0.0101
vn 0.7660 -0.6428 -0.0073
vn 0.7070 -0.7072 -0.0000
vn 0.6431 -0.7658 -0.0000
vn 0.8659 -0.5003 -0.0000
vn 0.8936 -0.4488 -0.0085
vn 0.9181 -0.3964 -0.0000
vn 0.9530 -0.3029 -0.0000
vn 0.9730 -0.2306 -0.0074
vn 0.9765 -0.2155 -0.0046
vn 0.9983 0.0581 -0.0000
vn 0.9983 0.0582 -0.0000
vn 0.9983 -0.0581 -0.0000
vn 0.9898 -0.1424 -0.0000
vn 0.8936 0.4488 -0.0085
vn 0.9181 0.3963 -0.0000
vn 0.9730 0.2306 -0.0000
vn 0.9541 0.2988 -0.0199
vn 0.9750 0.2221 -0.0058
vn 0.7660 0.6428 -0.0000
vn 0.7139 0.6998 -0.0264
vn 0.7594 0.6506 -0.0100
vn 0.8107 0.5855 -0.0000
vn 0.8659 0.5002 -0.0000
vn 0.3330 0.9425 -0.0284
vn 0.3961 0.9182 -0.0000
vn 0.2192 0.9757 -0.0000
vn 0.4094 0.9123 -0.0074
vn 0.4735 0.8808 -0.0000
vn 0.5972 0.8021 -0.0000
vn 0.5544 0.8320 -0.0200
vn 0.6428 0.7661 -0.0000
vn 0.1063 0.9939 -0.0299
vn 0.1736 0.9848 -0.0000
vn 0.0056 1.0000 -0.0000
vn -0.0581 0.9982 -0.0127
vn -0.0991 0.9951 -0.0028
vn -0.2868 0.9579 -0.0123
vn -0.2310 0.9730 -0.0000
vn -0.1622 0.9868 -0.0000
vn -0.5612 0.8277 -0.0000
vn -0.4887 0.8724 -0.0122
vn -0.5000 0.8660 -0.0084
vn -0.4215 0.9068 -0.0000
vn -0.3424 0.9396 -0.0000
vn -0.6316 0.7753 -0.0000
vn -0.6862 0.7273 -0.0095
vn -0.6988 0.7153 -0.0057
vn -0.8355 0.5495 -0.0089
vn -0.8021 0.5972 -0.0000
vn -0.7477 0.6641 -0.0000
vn -0.9397 0.3420 -0.0082
vn -0.9181 0.3964 -0.0000
vn -0.8660 0.5000 -0.0000
vn -0.9989 0.0461 -0.0000
vn -0.9906 0.1363 -0.0096
vn -0.9932 0.1161 -0.0053
vn -0.9784 0.2065 -0.0000
vn -0.9579 0.2872 -0.0000
vn -0.0000 -0.0000 -1.0000
vn 0.2502 -0.0000 -0.9682
vn -0.0606 -0.0000 -0.9982
vn -0.6737 -0.0002 -0.7390
vn -0.6451 -0.0081 -0.7641
vn -0.5639 0.0013 -0.8258
vn -0.5356 0.0045 -0.8444
vn -0.5865 0.0002 -0.8100
vn -0.5995 -0.0000 -0.8004
vn -0.6737 -0.0000 -0.7390
vn -0.6439 0.0084 -0.7651
vn -0.6622 0.0038 -0.7493
vn -0.3891 0.0033 -0.9212
vn -0.4271 -0.0000 -0.9042
vn -0.5264 0.0002 -0.8502
vn -0.4752 0.0194 -0.8797
vn -0.5022 0.0111 -0.8647
vn -0.1837 -0.0000 -0.9830
vn -0.1056 0.0385 -0.9937
vn -0.1461 0.0203 -0.9891
vn -0.2109 0.0037 -0.9775
vn -0.2582 -0.0000 -0.9661
vn -0.3612 -0.0000 -0.9325
vn -0.3093 0.0233 -0.9507
vn -0.3501 0.0107 -0.9366
vn 0.0035 0.0110 -0.9999
vn -0.0000 0.0098 -1.0000
vn 0.0640 -0.0000 -0.9980
vn 0.1341 -0.0000 -0.9910
vn 0.1837 0.0107 -0.9829
vn 0.2028 0.0058 -0.9792
vn 0.3950 0.0022 -0.9187
vn 0.3434 0.0120 -0.9391
vn 0.3612 0.0057 -0.9325
vn 0.2901 -0.0000 -0.9570
vn 0.2498 -0.0000 -0.9683
vn 0.5640 0.0013 -0.8258
vn 0.5356 0.0045 -0.8445
vn 0.5070 0.0102 -0.8619
vn 0.5264 0.0047 -0.8502
vn 0.4638 -0.0000 -0.8859
vn 0.4337 -0.0000 -0.9011
vn 0.6589 0.0046 -0.7522
vn 0.6422 0.0089 -0.7665
vn 0.6737 -0.0000 -0.7390
vn 0.5970 -0.0000 -0.8023
vn 0.5842 0.0003 -0.8116
vn 0.5356 -0.0046 -0.8445
vn 0.5639 -0.0013 -0.8258
vn 0.5842 -0.0003 -0.8116
vn 0.5977 -0.0000 -0.8017
vn 0.6737 -0.0002 -0.7390
vn 0.6433 -0.0086 -0.7655
vn 0.6590 -0.0046 -0.7522
vn 0.3612 -0.0001 -0.9325
vn 0.3031 -0.0261 -0.9526
vn 0.3435 -0.0120 -0.9391
vn 0.3952 -0.0022 -0.9186
vn 0.4332 -0.0000 -0.9013
vn 0.5264 -0.0000 -0.8502
vn 0.4793 -0.0178 -0.8775
vn 0.5070 -0.0102 -0.8619
vn -0.0000 -0.0104 -0.9999
vn 0.0034 -0.0092 -1.0000
vn 0.1837 -0.0000 -0.9830
vn 0.1390 -0.0221 -0.9900
vn 0.2028 -0.0057 -0.9792
vn -0.2108 -0.0037 -0.9775
vn -0.1460 -0.0203 -0.9891
vn -0.1837 -0.0032 -0.9830
vn -0.0994 -0.0000 -0.9950
vn -0.3892 -0.0033 -0.9212
vn -0.3501 -0.0108 -0.9367
vn -0.3612 -0.0073 -0.9324
vn -0.2978 -0.0000 -0.9546
vn -0.2585 -0.0000 -0.9660
vn -0.6002 -0.0000 -0.7998
vn -0.5864 -0.0002 -0.8100
vn -0.5639 -0.0013 -0.8258
vn -0.5356 -0.0045 -0.8445
vn -0.5022 -0.0111 -0.8647
vn -0.5264 -0.0036 -0.8502
vn -0.4577 -0.0000 -0.8891
vn -0.4268 -0.0000 -0.9044
vn 0.6785 -0.0000 -0.7346
vn 0.7980 -0.0000 -0.6026
vn 0.8952 -0.0000 -0.4457
vn 0.9618 -0.0000 -0.2737
vn 0.9957 -0.0000 -0.0923
vn 0.9957 -0.0000 0.0923
vn 0.9618 -0.0000 0.2737
vn 0.8952 -0.0000 0.4457
vn 0.7980 -0.0000 0.6026
vn 0.6737 -0.0000 0.7390
vn 0.5264 -0.0000 0.8502
vn 0.3612 -0.0000 0.9325
vn 0.1837 -0.0000 0.9830
vn 0.1838 -0.0000 0.9830
vn -0.0000 -0.0000 1.0000
vn -0.1838 -0.0000 0.9830
vn -0.1837 -0.0000 0.9830
vn -0.3612 -0.0000 0.9325
vn -0.5264 -0.0000 0.8502
vn -0.6737 -0.0000 0.7390
vn -0.7980 -0.0000 0.6026
vn -0.8952 -0.0000 0.4457
vn -0.9618 -0.0000 0.2737
vn -0.9957 -0.0000 0.0923
vn -0.9957 -0.0000 -0.0923
vn -0.9618 -0.0000 -0.2737
vn -0.8952 -0.0000 -0.4457
vn -0.7980 -0.0000 -0.6026
vn -0.6785 -0.0000 -0.7346
vn -0.6622 -0.0038 -0.7493
vn -0.0000 1.0000 -0.0000
vn -0.0000 -1.0000 -0.0000
vn 0.9983 -0.0000 0.0581
vn 0.9983 -0.0000 -0.0581
vn 0.9730 -0.0000 -0.2306
vn 0.8936 -0.0000 -0.4488
vn 0.7660 -0.0000 -0.6428
vn 0.5972 -0.0000 -0.8021
vn 0.3961 -0.0000 -0.9182
vn 0.1736 -0.0000 -0.9848
vn -0.0581 -0.0000 -0.9983
vn -0.2868 -0.0000 -0.9580
vn -0.5000 -0.0000 -0.8660
vn -0.6862 -0.0000 -0.7274
vn -0.8355 -0.0000 -0.5495
vn -0.9397 -0.0000 -0.3420
vn -0.9932 -0.0000 -0.1161
vn -0.9932 -0.0000 0.1161
vn -0.9397 -0.0000 0.3420
vn -0.8355 -0.0000 0.5495
vn -0.6862 -0.0000 0.7274
vn -0.5000 -0.0000 0.8660
vn -0.2868 -0.0000 0.9580
vn -0.0581 -0.0000 0.9983
vn 0.1736 -0.0000 0.9848
vn 0.3961 -0.0000 0.9182
vn 0.5972 -0.0000 0.8021
vn 0.7660 -0.0000 0.6428
vn 0.8936 -0.0000 0.4488
vn 0.9730 -0.0000 0.2306
s 0
usemtl black
f 1//1 2//1 3//1
f 4//2 5//2 6//2
f 7//3 8//3 9//3
f 10//4 11//4 12//4
f 12//5 11//5 13//5
f 12//6 13//6 9//6
f 9//7 13//7 14//7
f 9//8 14//8 7//8
f 15//9 16//9 17//9
f 17//10 16//10 18//10
f 17//11 18//11 10//11
f 10//12 18//12 19//12
f 10//13 19//13 11//13
f 6//14 5//14 17//14
f 17//15 5//15 20//15
f 17//16 20//16 15//16
f 21//17 22//17 6//17
f 6//18 22//18 23//18
f 6//19 23//19 4//19
f 24//20 25//20 26//20
f 26//21 25//21 27//21
f 26//22 27//22 21//22
f 21//23 27//23 28//23
f 21//24 28//24 22//24
f 24//25 26//25 29//25
f 29//26 26//26 30//26
f 29//27 30//27 31//27
f 31//28 30//28 32//28
f 31//29 32//29 33//29
f 33//30 32//30 34//30
f 34//31 32//31 35//31
f 34//32 35//32 36//32
f 37//33 38//33 35//33
f 35//34 38//34 39//34
f 35//35 39//35 36//35
f 40//36 41//36 42//36
f 42//37 41//37 43//37
f 42//38 43//38 37//38
f 37//39 43//39 44//39
f 37//40 44//40 38//40
f 40//41 42//41 45//41
f 45//42 42//42 46//42
f 45//43 46//43 47//43
f 47//44 46//44 48//44
f 48//45 46//45 49//45
f 48//46 49//46 50//46
f 3//47 2//47 51//47
f 51//48 2//48 52//48
f 51//49 52//49 49//49
f 49//49 52//49 53//49
f 49//50 53//50 50//50
f 54//51 55//51 56//51
f 56//52 55//52 57//52
f 56//53 57//53 3//53
f 3//54 57//54 58//54
f 3//55 58//55 1//55
f 59//56 60//56 54//56
f 54//57 60//57 61//57
f 61//58 62//58 54//58
f 54//59 62//59 63//59
f 54//60 63//60 55//60
f 64//61 65//61 66//61
f 66//62 65//62 67//62
f 66//63 67//63 68//63
f 64//64 69//64 65//64
f 65//65 69//65 70//65
f 65//66 70//66 59//66
f 59//67 70//67 71//67
f 59//68 71//68 60//68
f 68//69 67//69 72//69
f 72//70 67//70 73//70
f 72//71 73//71 74//71
f 74//72 73//72 75//72
f 74//73 75//73 76//73
f 77//74 78//74 75//74
f 75//75 78//75 79//75
f 75//76 79//76 76//76
f 80//77 81//77 82//77
f 82//78 81//78 83//78
f 82//79 83//79 77//79
f 77//80 83//80 84//80
f 77//81 84//81 78//81
f 80//82 82//82 85//82
f 85//83 82//83 86//83
f 85//84 86//84 87//84
f 88//85 89//85 86//85
f 86//86 89//86 90//86
f 86//87 90//87 87//87
f 91//88 92//88 88//88
f 88//89 92//89 93//89
f 88//90 93//90 89//90
f 8//91 94//91 9//91
f 9//92 94//92 95//92
f 9//93 95//93 91//93
f 91//94 95//94 96//94
f 91//95 96//95 92//95
f 97//96 49//96 98//96
f 54//96 56//96 98//96
f 98//96 56//96 3//96
f 98//96 3//96 97//96
f 67//96 65//96 98//96
f 98//96 65//96 59//96
f 98//96 59//96 54//96
f 77//96 75//96 98//96
f 98//96 75//96 73//96
f 98//96 73//96 67//96
f 88//96 86//96 98//96
f 98//96 86//96 82//96
f 98//96 82//96 77//96
f 12//96 9//96 98//96
f 98//96 9//96 91//96
f 98//96 91//96 88//96
f 6//96 17//96 98//96
f 98//96 17//96 10//96
f 98//96 10//96 12//96
f 30//96 26//96 98//96
f 98//96 26//96 21//96
f 98//96 21//96 6//96
f 37//96 35//96 98//96
f 98//96 35//96 32//96
f 98//96 32//96 30//96
f 49//96 46//96 98//96
f 98//96 46//96 42//96
f 98//96 42//96 37//96
f 34//97 36//97 99//97
f 74//98 76//98 100//98
f 101//99 102//99 14//99
f 14//100 102//100 7//100
f 93//101 92//101 103//101
f 93//102 103//102 89//102
f 92//103 96//103 103//103
f 103//104 96//104 95//104
f 103//105 95//105 104//105
f 104//106 95//106 94//106
f 104//107 94//107 105//107
f 80//108 85//108 106//108
f 106//109 85//109 87//109
f 106//110 87//110 103//110
f 103//111 87//111 90//111
f 103//112 90//112 89//112
f 100//113 76//113 107//113
f 107//114 76//114 79//114
f 107//115 79//115 78//115
f 78//116 84//116 107//116
f 107//117 84//117 83//117
f 107//118 83//118 106//118
f 106//119 83//119 81//119
f 106//120 81//120 80//120
f 74//121 100//121 72//121
f 72//122 100//122 108//122
f 72//123 108//123 68//123
f 68//124 108//124 66//124
f 66//125 108//125 109//125
f 66//126 109//126 64//126
f 60//127 71//127 110//127
f 110//128 71//128 70//128
f 110//129 70//129 109//129
f 109//130 70//130 69//130
f 109//131 69//131 64//131
f 57//132 55//132 111//132
f 55//133 63//133 111//133
f 111//134 63//134 62//134
f 111//135 62//135 110//135
f 110//136 62//136 61//136
f 110//137 61//137 60//137
f 52//138 2//138 112//138
f 112//139 2//139 1//139
f 112//140 1//140 111//140
f 111//141 1//141 58//141
f 111//142 58//142 57//142
f 40//143 45//143 113//143
f 113//144 45//144 47//144
f 47//145 48//145 113//145
f 113//146 48//146 50//146
f 113//147 50//147 114//147
f 114//148 50//148 53//148
f 114//149 53//149 52//149
f 99//150 36//150 115//150
f 115//151 36//151 39//151
f 115//152 39//152 38//152
f 38//153 44//153 115//153
f 115//154 44//154 43//154
f 115//155 43//155 113//155
f 113//156 43//156 41//156
f 113//157 41//157 40//157
f 116//158 117//158 24//158
f 24//159 29//159 116//159
f 116//123 29//123 31//123
f 116//160 31//160 99//160
f 99//161 31//161 33//161
f 99//162 33//162 34//162
f 22//163 28//163 118//163
f 118//164 28//164 27//164
f 118//165 27//165 117//165
f 117//166 27//166 25//166
f 117//98 25//98 24//98
f 20//167 5//167 119//167
f 119//168 5//168 4//168
f 119//169 4//169 118//169
f 118//170 4//170 23//170
f 118//171 23//171 22//171
f 14//172 13//172 101//172
f 101//173 13//173 11//173
f 101//174 11//174 19//174
f 19//175 18//175 101//175
f 101//176 18//176 16//176
f 101//177 16//177 119//177
f 119//178 16//178 15//178
f 119//179 15//179 20//179
f 52//180 112//180 114//180
f 114//181 112//181 120//181
f 114//181 120//181 121//181
f 121//182 120//182 122//182
f 121//182 122//182 123//182
f 123//183 122//183 124//183
f 123//183 124//183 125//183
f 125//184 124//184 126//184
f 125//184 126//184 127//184
f 127//185 126//185 128//185
f 127//185 128//185 129//185
f 129//186 128//186 130//186
f 129//186 130//186 131//186
f 131//187 130//187 132//187
f 131//187 132//187 133//187
f 133//188 132//188 134//188
f 133//188 134//188 135//188
f 135//189 134//189 136//189
f 135//189 136//189 137//189
f 137//190 136//190 138//190
f 137//190 138//190 139//190
f 139//191 138//191 140//191
f 139//191 140//191 141//191
f 141//192 140//192 142//192
f 141//193 142//193 143//193
f 143//194 142//194 144//194
f 143//194 144//194 145//194
f 145//195 144//195 146//195
f 145//196 146//196 147//196
f 147//197 146//197 148//197
f 147//197 148//197 149//197
f 149//198 148//198 150//198
f 149//198 150//198 151//198
f 151//199 150//199 152//199
f 151//199 152//199 153//199
f 153//200 152//200 154//200
f 153//200 154//200 155//200
f 155//201 154//201 156//201
f 155//201 156//201 157//201
f 157//202 156//202 158//202
f 157//202 158//202 159//202
f 159//203 158//203 160//203
f 159//203 160//203 161//203
f 161//204 160//204 162//204
f 161//204 162//204 163//204
f 163//205 162//205 164//205
f 163//205 164//205 165//205
f 165//206 164//206 166//206
f 165//206 166//206 167//206
f 167//207 166//207 104//207
f 167//207 104//207 102//207
f 102//208 104//208 105//208
f 102//209 105//209 7//209
f 160//210 158//210 168//210
f 166//210 164//210 168//210
f 168//210 164//210 162//210
f 168//210 162//210 160//210
f 106//210 103//210 168//210
f 168//210 103//210 104//210
f 168//210 104//210 166//210
f 108//210 100//210 168//210
f 168//210 100//210 107//210
f 168//210 107//210 106//210
f 111//210 110//210 168//210
f 168//210 110//210 109//210
f 168//210 109//210 108//210
f 122//210 120//210 168//210
f 168//210 120//210 112//210
f 168//210 112//210 111//210
f 128//210 126//210 168//210
f 168//210 126//210 124//210
f 168//210 124//210 122//210
f 134//210 132//210 168//210
f 168//210 132//210 130//210
f 168//210 130//210 128//210
f 140//210 138//210 168//210
f 168//210 138//210 136//210
f 168//210 136//210 134//210
f 146//210 144//210 168//210
f 168//210 144//210 142//210
f 168//210 142//210 140//210
f 152//210 150//210 168//210
f 168//210 150//210 148//210
f 168//210 148//210 146//210
f 158//210 156//210 168//210
f 168//210 156//210 154//210
f 168//210 154//210 152//210
f 169//211 113//211 170//211
f 170//211 113//211 114//211
f 170//211 114//211 171//211
f 171//211 114//211 121//211
f 171//211 121//211 172//211
f 172//211 121//211 123//211
f 172//211 123//211 173//211
f 173//211 123//211 125//211
f 173//211 125//211 174//211
f 174//211 125//211 127//211
f 174//211 127//211 175//211
f 175//211 127//211 129//211
f 175//211 129//211 176//211
f 176//211 129//211 131//211
f 176//211 131//211 177//211
f 177//211 131//211 133//211
f 177//211 133//211 178//211
f 179//211 118//211 180//211
f 180//211 118//211 117//211
f 180//211 117//211 181//211
f 181//211 117//211 116//211
f 181//211 116//211 182//211
f 182//211 116//211 99//211
f 182//211 99//211 169//211
f 169//211 99//211 115//211
f 169//211 115//211 113//211
f 183//211 165//211 184//211
f 184//211 165//211 167//211
f 184//211 167//211 185//211
f 185//211 167//211 102//211
f 185//211 102//211 186//211
f 186//211 102//211 101//211
f 186//211 101//211 179//211
f 179//211 101//211 119//211
f 179//211 119//211 118//211
f 133//211 135//211 178//211
f 178//211 135//211 137//211
f 178//211 137//211 187//211
f 187//211 137//211 139//211
f 187//211 139//211 188//211
f 188//211 139//211 141//211
f 188//211 141//211 189//211
f 189//211 141//211 143//211
f 189//211 143//211 190//211
f 143//211 145//211 190//211
f 190//211 145//211 147//211
f 190//211 147//211 191//211
f 191//211 147//211 149//211
f 191//211 149//211 192//211
f 192//211 149//211 151//211
f 192//211 151//211 193//211
f 193//211 151//211 153//211
f 193//211 153//211 194//211
f 153//211 155//211 194//211
f 194//211 155//211 157//211
f 194//211 157//211 195//211
f 195//211 157//211 159//211
f 195//211 159//211 196//211
f 196//211 159//211 161//211
f 196//211 161//211 183//211
f 183//211 161//211 163//211
f 183//211 163//211 165//211
f 197//212 198//212 174//212
f 174//213 198//213 173//213
f 198//213 199//213 173//213
f 173//214 199//214 200//214
f 173//214 200//214 172//214
f 172//215 200//215 201//215
f 172//215 201//215 171//215
f 171//216 201//216 202//216
f 171//216 202//216 170//216
f 170//217 202//217 203//217
f 170//217 203//217 169//217
f 169//218 203//218 204//218
f 169//218 204//218 182//218
f 182//219 204//219 205//219
f 182//219 205//219 181//219
f 181//220 205//220 206//220
f 181//220 206//220 180//220
f 180//221 206//221 207//221
f 180//221 207//221 179//221
f 179//222 207//222 208//222
f 179//222 208//222 186//222
f 186//223 208//223 209//223
f 186//223 209//223 185//223
f 185//224 209//224 210//224
f 185//224 210//224 184//224
f 184//225 210//225 211//225
f 184//225 211//225 183//225
f 183//226 211//226 212//226
f 183//226 212//226 196//226
f 196//227 212//227 213//227
f 196//227 213//227 195//227
f 195//228 213//228 214//228
f 195//228 214//228 194//228
f 194//229 214//229 215//229
f 194//229 215//229 193//229
f 193//230 215//230 216//230
f 193//230 216//230 192//230
f 192//231 216//231 217//231
f 192//231 217//231 191//231
f 191//232 217//232 218//232
f 191//232 218//232 190//232
f 190//233 218//233 219//233
f 190//233 219//233 189//233
f 189//234 219//234 220//234
f 189//234 220//234 188//234
f 188//235 220//235 221//235
f 188//235 221//235 187//235
f 187//236 221//236 222//236
f 187//236 222//236 178//236
f 178//237 222//237 223//237
f 178//237 223//237 177//237
f 177//238 223//238 224//238
f 177//238 224//238 176//238
f 176//239 224//239 197//239
f 176//239 197//239 175//239
f 175//212 197//212 174//212
f 198//211 197//211 225//211
f 201//211 200//211 225//211
f 225//211 200//211 199//211
f 225//211 199//211 198//211
f 204//211 203//211 225//211
f 225//211 203//211 202//211
f 225//211 202//211 201//211
f 207//211 206//211 225//211
f 225//211 206//211 205//211
f 225//211 205//211 204//211
f 210//211 209//211 225//211
f 225//211 209//211 208//211
f 225//211 208//211 207//211
f 213//211 212//211 225//211
f 225//211 212//211 211//211
f 225//211 211//211 210//211
f 216//211 215//211 225//211
f 225//211 215//211 214//211
f 225//211 214//211 213//211
f 219//211 218//211 225//211
f 225//211 218//211 217//211
f 225//211 217//211 216//211
f 222//211 221//211 225//211
f 225//211 221//211 220//211
f 225//211 220//211 219//211
f 197//211 224//211 225//211
f 225//211 224//211 223//211
f 225//211 223//211 222//211
